{
	"asset":{
		"generator":"Khronos glTF Blender I/O v4.4.56",
		"version":"2.0"
	},
	"scene":0,
	"scenes":[
		{
			"name":"Scene",
			"nodes":[
				0
			]
		}
	],
	"nodes":[
		{
			"mesh":0,
			"name":"rock.001",
			"translation":[
				0,
				-0.05781951919198036,
				0
			]
		}
	],
	"meshes":[
		{
			"name":"rock.005",
			"primitives":[
				{
					"attributes":{
						"POSITION":0,
						"NORMAL":1,
						"TEXCOORD_0":2,
						"TANGENT":3
					},
					"indices":4
				}
			]
		}
	],
	"accessors":[
		{
			"bufferView":0,
			"componentType":5126,
			"count":1205,
			"max":[
				1.3994009494781494,
				0.5158281326293945,
				1.606471300125122
			],
			"min":[
				-1.4021097421646118,
				-0.13200809061527252,
				-1.680778980255127
			],
			"type":"VEC3"
		},
		{
			"bufferView":1,
			"componentType":5126,
			"count":1205,
			"type":"VEC3"
		},
		{
			"bufferView":2,
			"componentType":5126,
			"count":1205,
			"type":"VEC2"
		},
		{
			"bufferView":3,
			"componentType":5126,
			"count":1205,
			"type":"VEC4"
		},
		{
			"bufferView":4,
			"componentType":5123,
			"count":6840,
			"type":"SCALAR"
		}
	],
	"bufferViews":[
		{
			"buffer":0,
			"byteLength":14460,
			"byteOffset":0,
			"target":34962
		},
		{
			"buffer":0,
			"byteLength":14460,
			"byteOffset":14460,
			"target":34962
		},
		{
			"buffer":0,
			"byteLength":9640,
			"byteOffset":28920,
			"target":34962
		},
		{
			"buffer":0,
			"byteLength":19280,
			"byteOffset":38560,
			"target":34962
		},
		{
			"buffer":0,
			"byteLength":13680,
			"byteOffset":57840,
			"target":34963
		}
	],
	"buffers":[
		{
			"byteLength":71520,
			"uri":"terrain.bin"
		}
	]
}
